<svg xmlns="http://www.w3.org/2000/svg" fill="none" viewBox="0 0 225 228"><path fill="#010000" d="m111.69 110.922.398.221.144.605-2.992 7.097a5.195 5.195 0 0 1-.483-.575c.263-.5.402-1.067.632-1.586l2.301-5.762ZM123.612 86.713l.628-.078c-.403 4.888-2.483 9.316-6.232 12.528a2.27 2.27 0 0 1-.574.378c-1.389-.467-2.802-1.212-4.039-1.995l.146-.27c1.197.352 2.497 1.143 3.65 1.673a5.12 5.12 0 0 0 .751-.536c3.069-2.624 5.353-7.733 5.67-11.7Z"/><path fill="#0C0C0C" d="m113.541 97.275-.09-.264 10.23-11.894-.069 1.596c-.317 3.968-2.601 9.076-5.67 11.7a5.12 5.12 0 0 1-.751.536c-1.153-.53-2.453-1.32-3.65-1.674ZM111.69 110.922l2.313-5.633c.807-1.885 1.594-4.406 3.365-5.563l.415-.302c3.885 2.024 6.07 7.255 7.305 11.244.66 2.132.863 4.191.64 6.409-.552-.641-.93-1.663-1.353-2.414-1.081-1.919-2.155-3.57-2.944-5.643-.075 1.488-.012 3.937-1.013 5.118l-.155.196-.106.131c.499 1.932 2.03 3.622 2.239 5.691l-1.918-4.072c-.819 2.827-1.851 5.94-3.297 8.506-.173.309-.42.91-.708 1.108l-.057-.148c-.682-1.75-1.565-3.378-2.208-5.152-.151-.416-.012-.758.1-1.169.248-.911 1.158-2.982.967-3.869-.115-.529-.867-1.434-1.14-1.988a25.178 25.178 0 0 1-1.372-3.328c-.155.578-.295 1.152-.531 1.704l-.144-.605-.398-.221Z"/><path fill="#0C0C0C" fill-rule="evenodd" d="m97.707 87.886 15.687 9.66.147-.27-.091-.265 10.231-11.894-.069 1.596.627-.078c.004-.134.003-.277.001-.425-.003-.52-.007-1.101.164-1.536.266-.672.201-1.608.144-2.428-.016-.23-.031-.45-.038-.653l4.125 1.136c2.154.42 4.699.356 6.557-.938a5.097 5.097 0 0 0 1.85-2.497c.167-.514.26-1.068.317-1.606.059-.565.084-1.137.109-1.71.044-1.014.088-2.031.327-3.02.194-.804.468-1.587.743-2.37.344-.983.689-1.966.875-2.99l.033-.198c.094-.516.115-.854-.005-1.371l-.156-.746c.069-.286.126-.574.182-.862.115-.588.229-1.174.454-1.736.132-.33.297-.654.461-.979.236-.465.473-.932.616-1.417.094-.32.134-.654.174-.989.033-.275.066-.551.13-.82.138-.581.296-1.149.454-1.713.362-1.295.718-2.572.812-3.96.1-1.48-.075-3.014-.291-4.477-.022-.145-.077-.357-.136-.585-.106-.406-.225-.864-.192-1.093.008-.06.156-.27.263-.421a3.1 3.1 0 0 0 .096-.14c.468-.748.646-1.105.651-2.02-.476-.22-1.033-.243-1.585-.267a7.293 7.293 0 0 1-.971-.084c-.443-.08-1.024-.093-1.462.107.438-.2 1.019-.188 1.462-.107.31.056.64.07.971.084.552.024 1.109.048 1.585.266l.181-.184c.562-.67 1.473-2.33 1.893-3.934.152-1.368-.127-2.98-.404-4.581-.168-.969-.335-1.933-.405-2.836.236-.183.48-.363.727-.544.593-.437 1.197-.88 1.707-1.384 1.583-1.565 2.729-4.028 2.982-6.231.26-2.27-.404-4.628-1.862-6.39-.973-1.174-1.996-1.71-3.452-2.105-.082-.022-.111-.022-.125-.037-.015-.018-.008-.055-.036-.175.991-3.216 1.114-6.277-.488-9.352-1.301-2.496-3.281-3.218-5.966-3.624-.732 1.627-2.196 2.215-3.544 2.292-1.883.107-4.066-.777-6.029-1.572-.649-.263-1.273-.516-1.855-.72-7.998-2.807-18.432-5.004-25.014 1.994a14.176 14.176 0 0 0-1.523 1.927c-.066.1-.158.268-.263.46-.25.456-.576 1.048-.79 1.18-.215.133-.825.189-1.355.236-.293.027-.56.051-.724.085-1.324.274-2.542.832-3.713 1.494-8.2 4.63-9.768 14.963-9.437 23.577.366 9.53 3.95 18.091 8.572 26.285.198.35.4.74.612 1.145.648 1.244 1.37 2.631 2.255 3.48.383.368.812.584 1.305.763.156.537.074 1.301.002 1.972-.025.234-.049.457-.06.654-.209 3.39-.514 6.871-1.173 10.205l-.133.007-.22.022-.15.012c-.849.08-1.614.633-2.128 1.294-.448.576-.806 1.267-.71 2.017.308 2.417 3.364 4.52 5.435 5.944.225.155.439.302.636.44Zm39.866-42.653-.195-.091.013-.83c.014-.213-.019-.259-.105-.38-.021-.03-.046-.065-.074-.108.028.044.053.079.074.109.086.12.119.166.105.38l-.014.829.196.091Zm2.334 15.595-.868.273h-.001l.868-.273h.001Zm-1.107.351-.769.215.769-.215Z" clip-rule="evenodd"/><path fill="#010000" d="m116.284 211.35 3.62-.001c.291 0 .979-.083 1.22 0 .101.034.162.138.242.208l-.073.217-3.764.04c-.419-.004-.998.077-1.351-.157l.106-.307Z"/><path fill="#161515" d="M113.715 204.068c.874.614 1.874.452 2.914.461l4.386.027c-.305.245-.861.145-1.259.146l-3.86.005c.092.265.111.227.331.371-.76.018-1.622-.05-2.346.195-.22.353-.178.53-.182.939l-.123-.138c-.067-.309-.111-.438-.006-.744.14-.412.13-.83.145-1.262ZM130.457 219.618l4.196.013c.644.003 1.419-.079 2.049.017l-.177.155-3.781.027-.171.283c.398.264 1.319.149 1.815.153l5.032.004c.736-.003 1.704-.131 2.394.072-1.323.204-2.764.107-4.104.113l-7.349-.027.252-.439-.156-.371Z"/><path fill="#010000" d="m134.671 195.57 3.824-.062c1.315.362 3.007.162 4.377.154l-.054.19c-.447.197-.947.093-1.416.185-.804.139-1.821.021-2.646.014l-6.159-.058-.036-.141-.625-.047-.072-.143 2.642-.072.165-.02ZM120.729 208.348c.586-.016 1.59-.164 2.141-.047.43.032.87-.018 1.234.222-.055.064-.267.267-.27.347l-8.621-.004-.071-.158-1.296-.041.142-.181c.546-.126 1.065-.036 1.618-.013.772.032 4.731.237 5.123-.125Z"/><path fill="#161515" d="m139.748 181.794 4.644.09c-.084.233-.093.462-.312.59l-3.293-.143c-.058-.105-.027-.255-.026-.373-.366-.009-.724.07-1.013-.164Z"/><path fill="#0C0C0C" fill-rule="evenodd" d="m83.313 88.742-1.97 1.858c-1.185 1.103-2.3 1.629-3.635 2.258-.369.174-.755.357-1.164.561L54.15 103.443l-6.35 4.292-.383.284c-.8.591-1.65 1.219-2.264 1.978-1.466 1.813-2.056 4.404-2.57 6.664-.03.126-.058.252-.086.376l-1.552 8.005-4.246 27.03-4.29 31.547-1.904 14.709c-.48 3.944-.946 7.976-.816 11.956.136 4.137 1.022 8.134 3.26 11.665 1.807 2.851 4.582 5.292 7.758 6.488 3.792 1.428 7.849 2.352 11.833 3.259.76.174 1.517.346 2.269.521l24.784 6.222 2.913 5.202c.184.036.423.065.68.095.55.065 1.18.139 1.508.329l-.103 3.921-83.767.034-.15 6.25 223.397-.037.016-6.192-47.673-.37c2.678-2.701 3.154-6.85 2.678-10.768l5.252-11.015 4.356-10.519c.209-.533.421-1.068.634-1.604 1.669-4.203 3.378-8.507 3.49-13.067.08-3.235-.812-6.422-1.684-9.541-.159-.569-.318-1.136-.47-1.7l-2.083-7.82-5.012-18.099-9.283-32.844c-.449-1.578-.89-3.162-1.332-4.748-1.746-6.269-3.502-12.573-5.807-18.636l-.002-.004c-.512-1.347-1.101-2.898-2.229-3.863-1.303-1.115-2.996-1.894-4.634-2.647a50.652 50.652 0 0 1-1.881-.897l-25.741-7.827 11.552 18.133-5.002 4.932c-.757.691-1.456 1.365-2.09 2.171l10.84 6.11-.019.198-.023.241c-.111 1.196-.236 2.534-.574 3.646v.001l-3.169 18.676c-.255 1.747-.645 3.447-1.037 5.162h-.001c-.082.36-.165.721-.246 1.082l-.03.135c-.803 3.562-1.604 7.119-2.683 10.61-.067.217-.131.44-.197.665v.001c-.258.891-.526 1.821-1.008 2.581.137-1.581.563-3.199.98-4.78.153-.584.306-1.162.442-1.732l1.651-7.487 4.674-25.375.084-.148c.102-.183.205-.368.359-.507-.154.139-.257.324-.359.507h-.001c-.027.05-.055.099-.084.148l.315-3.278c-.087-.185-3.685-2.243-6.124-3.638l-.003-.002c-1.017-.582-1.832-1.048-2.105-1.214l-2.438-1.622 2.47-2.451c.388-.409.8-.82 1.218-1.236 1.149-1.146 2.341-2.335 3.182-3.634-2.064-2.928-3.886-5.997-5.71-9.068-1.084-1.826-2.168-3.652-3.304-5.45-.26-.41-.509-.836-.759-1.263-.471-.805-.945-1.614-1.5-2.343-1.763-2.318-3.743-4.538-6.349-5.886.038 1.085.224 2.045.417 3.046.072.371.145.748.212 1.139l.906 6.337 1.404 14.168c.168 1.509.398 3.014.629 4.519.306 2.003.613 4.007.773 6.022.242 3.038.176 6.072.075 9.115-.26 7.886-1.414 15.809-4.082 23.261l-2.747 6.699-.085.183c-.573 1.228-1.173 2.515-2.024 3.571-3.501-3.712-6.084-8.397-8.537-12.846l-.075-.137c-6.051-10.974-10.924-22.309-15.128-34.107L92.3 101.874l16.459 17.927.481-.956a5.184 5.184 0 0 1-.483-.574c-.253-.17-.501-.5-.729-.803a8.452 8.452 0 0 0-.292-.372l-2.704-3.08c-1.351-1.499-2.75-2.967-4.15-4.437-2.968-3.114-5.944-6.237-8.49-9.68-.66-.893-1.02-1.699-1.355-2.75-1.093-3.42-2.337-7.713-1.894-11.305.145-1.18.76-2.63 1.317-3.68l.11-.206-2.104 1.357c-.57.42-1.061.971-1.54 1.507-.119.133-.237.265-.355.394l-3.258 3.526Zm-3.005 3.047-.587.372v.977c.002 1.086-.081 2.187-.164 3.287-.062.813-.123 1.625-.15 2.43l-.187 13.893c0 .46-.018.955-.037 1.465v.001c-.049 1.266-.1 2.619.143 3.724l6.124 2.427 3.026 1.029c.154.047.307.085.458.123.419.104.822.205 1.185.48l-5.811 4.044c-.322.228-.657.453-.996.681v.001h-.001c-.928.624-1.88 1.265-2.65 2.022l.004.247.62.597.403-.157-.403.158-.003.017 2.937 4.246c3.11 4.677 30.058 44.947 31.393 45.591-.658-.91-1.266-1.899-1.871-2.883h-.001c-.368-.6-.736-1.198-1.113-1.775l-6.45-9.732-17.026-25.167-4.573-6.796-1.983-2.867a9.279 9.279 0 0 0-.155-.218v-.001c-.239-.329-.503-.694-.56-1.077l-.021-.211 9.007-6.828-.347-.23c-.99-.507-2.084-.886-3.168-1.261-.536-.186-1.07-.371-1.587-.57-.637-.245-1.274-.511-1.913-.777-1.253-.521-2.512-1.046-3.793-1.428l.25-25.834Zm-10.67 80.066-.826 5.226-.172.952c-.315 1.731-.623 3.42-.645 5.206.465 2.828-.542 7.401-1.493 11.714-.695 3.156-1.36 6.172-1.396 8.266-.246 1.478.94 1.658 2.488 1.892.848.128 1.805.273 2.694.657-.484.269-.901.353-1.438.212l-4.617-1.296c.563-2.184.868-4.409 1.173-6.637v-.001l.166-1.203 2.048-15.853v-.001c-.11-.516.065-1.35.22-2.083.07-.339.137-.656.169-.911l1.026-7.74v-.001l.916-9.69c.461-7.749-.041-15.663-1.82-23.229-.384-1.633-.879-3.239-1.373-4.845-.266-.863-.532-1.726-.78-2.593 1.754 3.208 2.797 6.78 3.599 10.333.738 3.274 1.3 6.502 1.523 9.852.487 7.348-.368 14.521-1.463 21.773Zm65.856 6.251.084-.003c.878-.025 1.708-.049 2.577.129.298.247.459.689.603 1.083.033.093.066.183.1.267l-2.239.112-3.36.068c.236-.176.464-.369.693-.562.487-.411.976-.823 1.542-1.094Zm25.673 40.432c.041.014.062.021.076.035a.097.097 0 0 1 .023.035l.018.041.016.039.037.082-.356.189c-2.017-.125-4.044-.053-6.067.018h-.001c-.602.021-1.203.042-1.804.058-.194.006-.446.024-.728.044-.907.065-2.119.152-2.672-.102a.658.658 0 0 1-.207-.177c-.031-.035-.061-.07-.095-.1l.126-.27.978-.222 1.99-13.418 5.012.007 1.371 9.027.091.479.019.101v.002c.239 1.273.492 2.615.997 3.781.319.184.622.232.972.289l.065.01c.043.018.077.03.104.04a.703.703 0 0 1 .035.012Zm-7.111-19.69c-.293.021-.543.039-.725.047-.967.09-1.383.158-2.065.866l.104.197 5.184-.029a7.04 7.04 0 0 1 .385-.004c.467.003.93.005 1.277-.306l-.044-.591c-.622-.427-2.797-.273-4.115-.18h-.001Zm-20.891-7.149 6.898-.045c.509.026.809.106 1.163.474l-.174.235-1.014.075-5.629.091c-.19 0-.393.005-.601.012-.659.019-1.375.04-1.953-.119l-.122-.294c.362-.343.754-.374 1.21-.41l.222-.019Zm-1.728 1.278c.978-.058 1.939-.032 2.904-.007a54.36 54.36 0 0 0 1.765.028l3.464-.101.142-.005.125-.006c.66-.028 1.369-.058 1.922.292v.455a1.223 1.223 0 0 1-.505.098l-7.28.037c-.118 0-.274.005-.451.011-.674.022-1.651.055-2.011-.176-.074-.047-.135-.111-.196-.175-.031-.033-.062-.066-.094-.096l.215-.355Zm20.097 7.441 5.007.004.225-.001.181-.002h.008c.773-.009 1.736-.02 2.329.333l.01.098.006.052v.001c.032.276.046.401-.107.695l-.509.07-5.618-.053a102.1 102.1 0 0 0-.186-.003l-.189-.001c-.605-.001-1.39-.003-1.814-.249a3.877 3.877 0 0 1-.059-.034h-.001c-.066-.037-.094-.054-.11-.079-.012-.019-.016-.044-.023-.087-.006-.038-.014-.091-.031-.167.295-.365.408-.406.792-.545l.089-.032Zm-37.753 3.251-.066.399c.716.503 1.516.486 2.353.468.185-.004.373-.008.561-.006l4.386.026c.131-.002.303.001.499.005h.007c.734.016 1.787.038 2.147-.236.008-.062.016-.116.024-.165.038-.253.054-.356-.109-.63-1.059-.278-2.35-.235-3.548-.195-.398.013-.785.026-1.15.027-.339.001-.725-.014-1.135-.029-1.353-.051-2.962-.112-3.969.336Zm-43.877 2.868.03-.011c.105-.038.166-.06.313-.058.48.01 1.057.166 1.602.314.273.074.538.146.778.197l12.54 3.004c.173.05.385.102.617.158h.001l.001.001c.83.201 1.903.462 2.304.926-1.28.5-16.081-3.709-18.21-4.523l.024-.008Zm48.234-1.472H118.127c-.656.011-1.296.022-1.9.013-.163.004-.332.004-.502.004h-.002c-.622-.001-1.274-.001-1.842.191-.186.299-.185.472-.183.766l.001.115v.059l.092.052.036.022c.084.052.104.064.244.077.953.093 1.948.057 2.937.021.625-.023 1.247-.046 1.855-.036l3.435.154c.074 0 .169.004.272.008h.001c.281.011.63.025.815-.032a.424.424 0 0 0 .175-.136c.026-.028.052-.057.08-.081a3.63 3.63 0 0 1 .038-.207c.05-.254.079-.4-.11-.672-1.643-.383-3.599-.35-5.431-.318Zm2.591 3.283c-.243-.004-.681-.002-1.234-.001-2.332.007-6.711.019-7.194-.318-.012-.08-.025-.134-.034-.174a.254.254 0 0 1-.012-.1c.006-.03.027-.057.075-.117h.001l.029-.037.029-.036c.382-.486 1.1-.523 1.705-.555h.001l.234-.013c2.13-.144 4.273-.092 6.406-.041l.243.006c.241.006.499.002.762-.001.606-.009 1.244-.018 1.787.087.348.067.73.254.982.506l.095.121-.12.283a8.734 8.734 0 0 1-1.614.343c-.384-.081-.988-.034-1.517.008h-.001c-.23.018-.445.034-.623.039Zm12.488-12.808c.61-.005 1.154-.01 1.454.03l3.824-.062c.335 0 .721.019 1.129.039h.001c1.105.055 2.37.117 3.209-.168l.022-.227c-.106-.074-.207-.131-.315-.192h-.001l-.075-.043c-.192-.11-.308-.28-.428-.457l-.003-.004-.07-.101c-.981-.236-2.079-.207-3.128-.178h-.003c-.303.008-.601.016-.891.018l-7.278.128c-.314.24-.378.481-.469.825l-.024.09c.359.326 1.834.313 3.046.302Zm21.165 6.556c.498.008.995.017 1.487.018.335.001.684-.008 1.042-.016 1.16-.028 2.399-.058 3.451.219.682.179.93.61 1.23 1.133.065.113.133.23.208.351l-2.175.147-8.224-.018c-.199-.001-.443.009-.705.021h-.004c-.697.03-1.527.066-2.008-.087-.067-.022-.114-.079-.162-.136a.809.809 0 0 0-.073-.081c.033-.298.065-.478.241-.733.417-.601 1.279-.695 1.947-.768l.035-.004c1.22-.086 2.47-.066 3.71-.046Zm-21.132-20.285 6.498-.017c.226.183.494.175.774.167h.001c.078-.002.158-.005.238-.003 0 .029-.002.06-.004.091-.007.098-.014.203.03.282l3.293.143c.167-.098.212-.254.261-.426.016-.054.031-.109.051-.164l.24-.285-.117-.286c-.635-.252-1.279-.334-1.928-.417-.392-.05-.786-.101-1.181-.189-.316-.07-.619-.173-.922-.276-.484-.165-.966-.329-1.496-.358-2.746-.15-5.683.085-8.379.569-.185.033-.364.059-.537.084-.74.109-1.382.204-2.022.758l.098.215c1.335.22 2.721.179 4.085.138.341-.01.68-.02 1.017-.026Zm-14.067 3.816.063-.025c.415-.065.699-.066 1.068.12.105.509-.08 1.066-.251 1.581-.041.124-.081.245-.117.362l1.855.257c.13.598.127 1.507-.182 2.019-.402.115-.797.073-1.202.03l-.073-.007a2.767 2.767 0 0 0-.095-.01l-.043-.004c-.327.158-.277.612-.224 1.092.048.438.099.899-.13 1.18l-1.378.022-.812-.027c-.23-.344-.162-1.208-.112-1.84.013-.175.026-.331.03-.454l-2.209-.091a37.83 37.83 0 0 1-.009-.172c-.033-.595-.078-1.418.25-1.835l1.471.142-.004-2.304 2.104-.036Zm4.651 23.244.52.035c.709.098 1.547.79 1.958 1.343l.001.001c.219.295.257.346.197.69-.531.217-1.094.217-1.659.217-.112 0-.224 0-.336.002l-3.203.021c-.929.001-1.877.02-2.833.039-2.782.055-5.635.112-8.306-.252l.858-1.09c.238-.258.708-.728 1.029-.853.585-.228 1.603-.196 2.429-.171.269.008.517.016.724.014l8.621.004Zm14.922-12.819-6.159-.059c-.202.003-.468-.012-.757-.027-.66-.035-1.44-.077-1.845.057-.203.067-.705.613-1.023.96-.089.097-.164.179-.214.23a1.315 1.315 0 0 0-.336.569l.11.283c.75.276 1.658.288 2.506.3.241.004.478.007.704.016l8.339.086c.331-.004.703.008 1.093.019h.003c1.183.036 2.539.077 3.452-.28l.162-.283a4.901 4.901 0 0 0-1.607-1.766l-1.782-.12c-.569.099-1.244.068-1.882.04a21.065 21.065 0 0 0-.764-.025Zm-2.938-27.576.028-.004a.44.44 0 0 1 .095.012l.12.022c.103.017.16.028.198.035l.016.003.021.004.023.003.007.001.012.002.04.003.047.003.03.002h.001l.057.004c.714.045 1.138.399 1.633.813.104.087.21.176.323.265-.327.752-.55 1.286-.479 2.132.331.291 1.184.244 1.819.208.168-.009.321-.017.445-.018l-.011 2.525-2.35-.084c-.003.241 0 .488.002.737v.001c.007.706.014 1.432-.093 2.104l-.424.105-2.379-.131.209-2.676-2.418-.03-.068-2.7 2.52.197-.057-.591c-.046-.635-.08-1.058-.387-1.632l-.075-.135.082-.282c.264-.057.488-.127.735-.234l.093-.614.128-.035.057-.015Zm18.482 18.423.745-.067c.454.017.928.343 1.188.703.18.25.24.538.191.839-.08.488-.41.857-.793 1.14l-.1.071c.356.271.79.436 1.235.606.496.189 1.005.383 1.434.733 1.004.821 1.457 2.225 1.522 3.485.054 1.062-.554 2.538-1.305 3.313-.51.527-1.306.56-2.011.59h-.001l-.083.003-.182.009-4.095.016-.03-.027c-.319-.288-.646-.584-.905-.929-.933-1.244-1.239-2.741-.945-4.266.219-1.139 1.599-2.632 2.618-3.19a3.85 3.85 0 0 1 .455-.201c.2-.078.398-.155.59-.284-.341-.671-.433-.942-.374-1.696.249-.458.392-.59.846-.848Zm-13.513-4.568 3.293.144c-1.708 2.6-2.924 5.839-3.642 8.844l-5.502-.002a26.225 26.225 0 0 0-.635-.008h-.001c-.62-.002-1.265-.004-1.844-.128-.845-3.144-2.278-6.052-3.947-8.831l12.278-.019Zm-22.027 10.463-.457.018a9.697 9.697 0 0 1-.403.033c-.411.028-.895.061-1.18.198-.28.133-.654.624-.948 1.009a8.954 8.954 0 0 1-.27.345l-.014.016-.021.028-.037.047h-.001c-.101.131-.267.346-.316.367-.195.082-.533.111-.832.137-.141.012-.274.023-.378.039l-3.059.432 3.745 7.454 4.733-.049 3.991-.031c.268-.92.683-1.742 1.105-2.58v-.001c.13-.256.26-.514.386-.776l1.731-4.01-4.961-.656c.055-.506.033-.681-.309-1.076-.732-.849-1.43-.94-2.505-.944Zm27.747 33.866-.002-.002-.005-.006-.103-.107-.115-.121c-.369-.382-.455-.471-.507-1.011.328-.913 1.102-1.538 1.875-2.162.695-.562 1.389-1.123 1.757-1.893.236-.492.286-1.083.333-1.636l.011-.12.013-.144 11.026.001c.072 1.137.15 2.114 1.034 2.921.342.312.786.604 1.247.908 1.148.756 2.401 1.581 2.444 2.951.018.571-.35 1.24-.68 1.683-.639.296-1.349.321-2.057.346-.407.015-.813.03-1.205.095-.774-.161-1.79-.106-2.73-.055-.424.023-.832.045-1.195.046l-9.324-.129c-.678-.369-1.271-.991-1.817-1.565Zm-16.084-7.181c.01.038.022.083.034.139l4.196.013c.202.001.418-.006.638-.014h.001c.479-.017.978-.035 1.41.032.729-.018 1.479.002 2.234.022h.001c1.307.035 2.628.071 3.869-.087l.03-.178-.55-.253c-1.395-1.599-2.637-16.845-2.782-19.829l-6.135.105c-.344 4.738-.723 9.402-1.473 14.097-.04.252-.079.514-.119.783-.24 1.61-.518 3.469-1.298 4.795-.108.184-.094.237-.056.375Zm-18.899 10.378c-.014-.038-.022-.056-.021-.075 0-.017.007-.034.021-.068.012-.029.029-.069.051-.132l1.34-.515c.407-.894.649-1.966.874-2.964v-.001l.137-.599c1.038-4.422 1.451-8.967 1.73-13.491l6.36-.037c.008 3.68.616 7.37 1.289 10.979.051.276.101.559.152.846.355 2.008.747 4.22 1.933 5.824l.097-.109c.187-1.608 1.23-2.822 2.267-4.028.517-.601 1.031-1.201 1.438-1.846.656-1.043.941-2.012 1.169-3.213l7.349.027c.337-.001.681.004 1.027.009 1.03.015 2.087.031 3.077-.122l.578.054c.158.266.189.59.22.912a4.2 4.2 0 0 0 .068.501c.115.525.351 1.078.592 1.557.435.863 1.328 1.995 1.999 2.703.226.239.458.451.688.662h.001c.366.335.728.665 1.051 1.09 2.415 4.103-.269 4.103-1.978 4.103h-6.859a73.806 73.806 0 0 0-2.912.076c-2.571.1-5.259.205-7.566-.339-.361-.239-.456-.496-.593-.865l-.032-.085-.189-.505-.067-.189c-.716-.102-1.556-.057-2.364-.013h-.001c-.414.022-.82.044-1.197.045l-9.428-.041-2.264-.053-.036-.098h-.001Zm-16.42-17.624c-1.05-.231-2.46-.541-3.14-.317-4.12 2.644-6.573 8.517-7.584 13.124-1.075 4.901-1.22 10.758 1.07 15.345l11.789 1.522.181-.311-.009-.034c-.438-1.652-.868-3.277-1.055-4.982-.597-5.451.489-11.892 3.23-16.688 1.382-2.415 2.952-4.5 5.458-5.832-2.139-.507-4.325-.864-6.505-1.22h-.001c-.875-.143-1.75-.285-2.618-.437-.22-.039-.502-.101-.816-.17Z" clip-rule="evenodd"/></svg>
