<svg xmlns="http://www.w3.org/2000/svg" fill="none" viewBox="0 0 52 52"><path fill="#fff" d="M0 0h52v52H0z"/><path fill="#595653" d="M35.816 39.634h-.563c0-.006-.002-.012-.004-.018l-.015-.069c-.01-.045-.02-.09-.032-.134l-.014-.063a9.32 9.32 0 0 0-.046-.176l-.005-.017a8.26 8.26 0 0 0-.054-.19l-.02-.061-.039-.13-.023-.07a6.495 6.495 0 0 0-.042-.124l-.023-.065a7.031 7.031 0 0 0-.057-.154c-.005-.01-.008-.021-.012-.032a7.571 7.571 0 0 0-.072-.18l-.027-.064-.05-.117-.032-.072a6.962 6.962 0 0 0-.084-.183c-.02-.043-.039-.085-.061-.128l-.025-.049a6.014 6.014 0 0 0-.086-.166l-.04-.07-.055-.101-.043-.075-.055-.094a2.28 2.28 0 0 0-.045-.075l-.062-.101-.056-.091c-.027-.042-.054-.085-.082-.126a5.288 5.288 0 0 0-.052-.078l-.056-.083c-.02-.027-.04-.054-.057-.081a.964.964 0 0 0-.055-.075c-.019-.024-.04-.055-.06-.083l-.055-.074c-.04-.05-.076-.1-.115-.15l-.054-.069-.07-.085-.052-.063-.073-.086-.051-.06-.077-.086-.045-.05a9.6 9.6 0 0 0-.29-.306l-.044-.043-.09-.09-.045-.042a7.278 7.278 0 0 0-.095-.09l-.033-.03a8.091 8.091 0 0 0-.344-.299l-.032-.026a6.581 6.581 0 0 0-.108-.09l-.037-.028c-.04-.03-.075-.06-.113-.09l-.02-.014c-.129-.099-.261-.195-.395-.288l-.018-.013a9.713 9.713 0 0 0-.127-.085l-.028-.018c-.044-.03-.087-.057-.131-.085l-.008-.005a9.313 9.313 0 0 0-.444-.264l-.006-.004c-.047-.027-.095-.052-.143-.078l-.021-.011a9.62 9.62 0 0 0-.783-.375l-.017-.007a9.163 9.163 0 0 0-.213-.087h1.413c.23 0 .416-.251.416-.561 0-.31-.186-.562-.416-.562h-.421c.026-.063.055-.134.086-.214.398-.235 1.098-.736 1.793-1.655l.005-.008c.053-.068.105-.14.155-.213l.01-.015c.051-.072.102-.147.151-.224l.014-.021.07-.112s0-.003.004-.005l.072-.119.016-.026.061-.105.012-.02a7.11 7.11 0 0 0 .07-.122l.015-.03a6.403 6.403 0 0 0 .139-.262l.015-.03.052-.107.02-.038.063-.134.013-.029.05-.112.021-.045a7.317 7.317 0 0 0 .121-.29l.02-.05.048-.124.012-.032.055-.15.019-.053.042-.12.015-.045a13.184 13.184 0 0 0 .068-.212l.04-.123.016-.054a9.314 9.314 0 0 0 .097-.348l.016-.06c.014-.057.03-.115.043-.174l.012-.05.033-.14.014-.064.04-.184a9.673 9.673 0 0 0 .04-.2l.012-.066.03-.168.006-.035.032-.2c.004-.022.008-.044.01-.067l.025-.165.007-.05.027-.209.008-.067a8.331 8.331 0 0 0 .026-.228l.02-.22c0-.02.005-.04.006-.061l.015-.179c0-.022.003-.044.005-.066l.015-.23c0-.018 0-.038.003-.054l.01-.194c0-.024 0-.047.003-.07l.009-.244V23.2l.004-.221V22.308c0-.075-.003-.153-.005-.231v-.042l-.01-.272-.003-.072a17.251 17.251 0 0 0-.012-.232c0-.019 0-.037-.003-.058a29.482 29.482 0 0 0-.018-.282l-.005-.067-.018-.24c0-.022-.004-.046-.006-.069a27.538 27.538 0 0 0-.027-.294c0-.019-.004-.038-.005-.057l-.027-.255a23.313 23.313 0 0 0-.044-.385c0-.012-.003-.025-.005-.037a22.854 22.854 0 0 0-.036-.28l-.011-.083-.046-.321C32.598 8.374 21.41 10.104 21.41 10.104l.358 2.29L15 19.17l.296 2.617 2.563 1.497c.114-.275.261-.538.438-.782 1.654-1.808 4.863-3.228 5.781-3.523a9.97 9.97 0 0 1 .289-.088c-4.394 5.391-3.895 11.568-3.699 13.04-.203.037-.361.27-.361.555 0 .31.187.561.417.561h1.413c-2.35.933-4.215 2.709-5.189 4.94a2.626 2.626 0 0 0-.31.836l-.02.066-.037.12-.02.075a3.755 3.755 0 0 0-.055.2l-.029.112a5.863 5.863 0 0 0-.026.114l-.03.13h-.562a.853.853 0 0 0-.587.22.773.773 0 0 0-.181.252.737.737 0 0 0 .18.85.822.822 0 0 0 .588.22h19.964a.853.853 0 0 0 .587-.22.772.772 0 0 0 .181-.252.737.737 0 0 0-.18-.85.853.853 0 0 0-.587-.22l-.008-.007Z"/></svg>